# Blender v2.90.0 OBJ File: ''
# www.blender.org
mtllib 2x1.mtl
o Cube.005
v 0.574433 0.665048 -0.237039
v 0.574433 0.030160 -0.237039
v 0.574433 0.665048 0.403070
v 0.574433 0.030160 0.403070
v -0.574433 0.665048 -0.237039
v -0.574433 0.030160 -0.237039
v -0.574433 0.665048 0.403070
v -0.574433 0.030160 0.403070
v -0.574433 0.030160 0.240870
v -0.574433 0.665048 0.240870
v 0.574433 0.030160 0.240870
v -0.574433 0.665048 -0.078101
v 0.574433 0.030160 -0.078101
v -0.574433 0.030160 -0.078101
v 0.574433 0.665048 -0.078101
v 0.574433 0.665048 0.240842
v 0.402910 0.030160 -0.237039
v 0.402910 0.665048 0.403070
v 0.402910 0.030160 0.403070
v 0.402910 0.665048 -0.237039
v 0.402910 0.030160 0.240870
v 0.402910 0.665048 0.240870
v 0.402910 0.665048 -0.078101
v 0.402910 0.030160 -0.078335
v -0.402360 0.030160 -0.237039
v -0.402360 0.665048 0.403070
v -0.402360 0.030160 0.240870
v -0.402360 0.030160 -0.078101
v -0.402360 0.030160 0.403070
v -0.402360 0.665048 -0.237039
v -0.402360 0.665048 0.240870
v -0.402360 0.665048 -0.078101
v 0.105512 0.030160 0.403070
v 0.105512 0.665048 -0.237039
v 0.105512 0.665048 0.240870
v 0.105512 0.665048 -0.078101
v 0.105512 0.030160 -0.237039
v 0.105512 0.665048 0.403070
v 0.105512 0.030160 0.240870
v 0.105512 0.030160 -0.078352
v -0.113953 0.030160 -0.237039
v -0.113953 0.665048 0.403070
v -0.113953 0.030160 0.240870
v -0.113953 0.030160 -0.078352
v -0.113953 0.030160 0.403070
v -0.113953 0.665048 -0.237039
v -0.113953 0.665048 0.240870
v -0.113953 0.665048 -0.078101
v -0.402360 0.783508 -0.078101
v -0.402360 0.783508 0.240842
v -0.113953 0.783508 -0.078101
v -0.113953 0.783508 0.240842
v 0.402910 0.783508 -0.078101
v 0.402910 0.783508 0.240842
v 0.105512 0.783508 -0.078101
v 0.105512 0.783508 0.240842
v 0.402910 0.612335 -0.078335
v 0.402910 0.612335 0.240870
v -0.402360 0.612335 0.240870
v -0.113953 0.612335 -0.078101
v -0.402360 0.612335 -0.078101
v -0.113953 0.612335 0.240842
v 0.105512 0.612335 0.240870
v 0.105512 0.612335 -0.078101
vt 0.837556 0.734010
vt 0.875000 0.734010
vt 0.875000 0.750000
vt 0.837556 0.750000
vt 0.375000 0.962556
vt 0.625000 0.962556
vt 0.625000 1.000000
vt 0.375000 1.000000
vt 0.375000 0.234356
vt 0.625000 0.234356
vt 0.625000 0.250000
vt 0.375000 0.250000
vt 0.337676 0.734010
vt 0.375000 0.734010
vt 0.375000 0.750000
vt 0.337676 0.750000
vt 0.625000 0.734010
vt 0.625000 0.750000
vt 0.375000 0.462676
vt 0.625000 0.462676
vt 0.625000 0.500000
vt 0.375000 0.500000
vt 0.375000 0.000000
vt 0.625000 0.000000
vt 0.625000 0.015990
vt 0.375000 0.015990
vt 0.375000 0.077760
vt 0.625000 0.077760
vt 0.625000 0.109203
vt 0.375000 0.109203
vt 0.837556 0.640797
vt 0.875000 0.640797
vt 0.875000 0.672240
vt 0.837556 0.672240
vt 0.337676 0.640797
vt 0.375000 0.640797
vt 0.375000 0.672240
vt 0.337676 0.672240
vt 0.625000 0.640797
vt 0.625000 0.672240
vt 0.837556 0.500000
vt 0.875000 0.500000
vt 0.875000 0.515644
vt 0.837556 0.515644
vt 0.337676 0.500000
vt 0.375000 0.515644
vt 0.337676 0.515644
vt 0.625000 0.515644
vt 0.272960 0.500000
vt 0.272960 0.515644
vt 0.662324 0.500000
vt 0.662324 0.515644
vt 0.272960 0.734010
vt 0.272960 0.734010
vt 0.337676 0.734010
vt 0.662324 0.640797
vt 0.662324 0.672240
vt 0.162444 0.672240
vt 0.162444 0.640797
vt 0.162444 0.640797
vt 0.162444 0.672240
vt 0.375000 0.397960
vt 0.625000 0.397960
vt 0.272960 0.750000
vt 0.625000 0.787324
vt 0.375000 0.787324
vt 0.662324 0.734010
vt 0.662324 0.750000
vt 0.125000 0.734010
vt 0.162444 0.734010
vt 0.162444 0.750000
vt 0.125000 0.750000
vt 0.625000 0.287444
vt 0.375000 0.287444
vt 0.125000 0.640797
vt 0.125000 0.672240
vt 0.125000 0.500000
vt 0.162444 0.500000
vt 0.162444 0.515644
vt 0.125000 0.515644
vt 0.774797 0.500000
vt 0.774797 0.515644
vt 0.375000 0.899797
vt 0.625000 0.899797
vt 0.774797 0.734010
vt 0.774797 0.750000
vt 0.727040 0.734010
vt 0.727040 0.750000
vt 0.625000 0.852040
vt 0.375000 0.852040
vt 0.727040 0.500000
vt 0.727040 0.515644
vt 0.225203 0.734010
vt 0.225203 0.750000
vt 0.375000 0.350203
vt 0.625000 0.350203
vt 0.225203 0.500000
vt 0.225203 0.515644
vt 0.225203 0.515644
vt 0.162444 0.515644
vt 0.272960 0.515644
vt 0.727040 0.640797
vt 0.774797 0.640797
vt 0.774797 0.672240
vt 0.727040 0.672240
vt 0.774797 0.640797
vt 0.837556 0.640797
vt 0.837556 0.672240
vt 0.774797 0.672240
vt 0.662324 0.640797
vt 0.727040 0.640797
vt 0.727040 0.672240
vt 0.662324 0.672240
vt 0.272960 0.640797
vt 0.337676 0.640797
vt 0.337676 0.672240
vt 0.272960 0.672240
vt 0.225203 0.640797
vt 0.225203 0.672240
vt 0.225203 0.734010
vt 0.162444 0.734010
vt 0.337676 0.515644
vn 0.0000 1.0000 0.0000
vn 0.0000 0.0000 1.0000
vn -1.0000 0.0000 0.0000
vn 0.0000 -1.0000 0.0000
vn 1.0000 -0.0000 0.0000
vn 0.0000 0.0000 -1.0000
vn 0.0004 -0.0002 1.0000
vn 0.0000 -0.0004 1.0000
vn -0.0000 0.0002 1.0000
vn 0.0001 -0.0000 -1.0000
usemtl Material.005
s off
f 31/1/1 10/2/1 7/3/1 26/4/1
f 29/5/2 26/6/2 7/7/2 8/8/2
f 14/9/3 12/10/3 5/11/3 6/12/3
f 21/13/4 11/14/4 4/15/4 19/16/4
f 11/14/5 16/17/5 3/18/5 4/15/5
f 17/19/6 20/20/6 1/21/6 2/22/6
f 8/23/3 7/24/3 10/25/3 9/26/3
f 9/27/3 10/28/3 12/29/3 14/30/3
f 32/31/1 12/32/1 10/33/1 31/34/1
f 24/35/4 13/36/4 11/37/4 21/38/4
f 13/36/5 15/39/5 16/40/5 11/37/5
f 30/41/1 5/42/1 12/43/1 32/44/1
f 17/45/4 2/22/4 13/46/4 24/47/4
f 2/22/5 1/21/5 15/48/5 13/46/5
f 37/49/4 17/45/4 24/47/4 40/50/4
f 1/21/1 20/51/1 23/52/1 15/48/1
f 21/13/6 39/53/6 63/54/6 58/55/6
f 15/39/1 23/56/1 22/57/1 16/40/1
f 27/58/5 28/59/5 61/60/5 59/61/5
f 37/62/6 34/63/6 20/20/6 17/19/6
f 39/53/4 21/13/4 19/16/4 33/64/4
f 4/15/2 3/18/2 18/65/2 19/66/2
f 16/17/1 22/67/1 18/68/1 3/18/1
f 9/69/4 27/70/4 29/71/4 8/72/4
f 6/12/6 5/11/6 30/73/6 25/74/6
f 14/75/4 28/59/4 27/58/4 9/76/4
f 6/77/4 25/78/4 28/79/4 14/80/4
f 46/81/1 30/41/1 32/44/1 48/82/1
f 45/83/2 42/84/2 26/6/2 29/5/2
f 47/85/1 31/1/1 26/4/1 42/86/1
f 22/67/1 35/87/1 38/88/1 18/68/1
f 19/66/2 18/65/2 38/89/2 33/90/2
f 20/51/1 34/91/1 36/92/1 23/52/1
f 43/93/4 39/53/4 33/64/4 45/94/4
f 41/95/6 46/96/6 34/63/6 37/62/6
f 41/97/4 37/49/4 40/50/4 44/98/4
f 25/78/4 41/97/4 44/98/4 28/79/4
f 28/79/7 44/98/7 60/99/7 61/100/7
f 44/98/8 40/50/8 64/101/8 60/99/8
f 25/74/6 30/73/6 46/96/6 41/95/6
f 27/70/4 43/93/4 45/94/4 29/71/4
f 35/87/1 47/85/1 42/86/1 38/88/1
f 33/90/2 38/89/2 42/84/2 45/83/2
f 36/102/1 48/103/1 47/104/1 35/105/1
f 34/91/1 46/81/1 48/82/1 36/92/1
f 51/106/1 49/107/1 50/108/1 52/109/1
f 47/104/5 48/103/5 51/106/5 52/109/5
f 32/31/3 31/34/3 50/108/3 49/107/3
f 48/103/6 32/31/6 49/107/6 51/106/6
f 31/34/9 47/104/9 52/109/9 50/108/9
f 53/110/1 55/111/1 56/112/1 54/113/1
f 22/57/5 23/56/5 53/110/5 54/113/5
f 23/56/6 36/102/6 55/111/6 53/110/6
f 36/102/3 35/105/3 56/112/3 55/111/3
f 35/105/9 22/57/9 54/113/9 56/112/9
f 64/114/4 57/115/4 58/116/4 63/117/4
f 60/118/4 64/114/4 63/117/4 62/119/4
f 61/60/4 60/118/4 62/119/4 59/61/4
f 24/35/3 21/38/3 58/116/3 57/115/3
f 39/53/10 43/93/10 62/120/10 63/54/10
f 43/93/6 27/70/6 59/121/6 62/120/6
f 40/50/7 24/47/7 57/122/7 64/101/7
