# Blender v2.90.0 OBJ File: ''
# www.blender.org
mtllib 2x3.mtl
o Cube.001
v 0.574433 0.684899 -0.883528
v 0.574433 0.050011 -0.883528
v 0.574433 0.684899 1.025829
v 0.574433 0.050011 1.025829
v -0.574433 0.684899 -0.883528
v -0.574433 0.050011 -0.883528
v -0.574433 0.684899 1.025829
v -0.574433 0.050011 1.025829
v -0.574433 0.050011 0.863629
v -0.574433 0.684899 0.863629
v 0.574433 0.050011 0.863629
v -0.574433 0.684899 0.544658
v 0.574433 0.050011 0.544658
v -0.574433 0.050011 0.544658
v 0.574433 0.684899 0.544658
v 0.574433 0.684899 0.863601
v -0.574433 0.684899 -0.090091
v 0.574433 0.050011 -0.090091
v -0.574433 0.050011 -0.090091
v 0.574433 0.684899 -0.090091
v -0.574433 0.050011 0.227283
v 0.574433 0.684899 0.227283
v -0.574433 0.684899 0.227283
v 0.574433 0.050011 0.227283
v -0.574433 0.684899 -0.724841
v 0.574433 0.050011 -0.724841
v -0.574433 0.050011 -0.724841
v 0.574433 0.684899 -0.724841
v -0.574433 0.050011 -0.407466
v 0.574433 0.684899 -0.407466
v -0.574433 0.684899 -0.407466
v 0.574433 0.050011 -0.407466
v 0.402910 0.050011 -0.883528
v 0.402910 0.684899 1.025829
v 0.402910 0.050011 1.025829
v 0.402910 0.684899 -0.883528
v 0.402910 0.050011 0.863629
v 0.402910 0.684899 0.863629
v 0.402910 0.684899 0.544658
v 0.402910 0.050011 0.544658
v 0.402910 0.050011 -0.090091
v 0.402910 0.684899 -0.090091
v 0.402910 0.050011 0.227283
v 0.402910 0.684899 0.227283
v 0.402910 0.684899 -0.724841
v 0.402910 0.050011 -0.724841
v 0.402910 0.684899 -0.407466
v 0.402910 0.050011 -0.407466
v -0.402360 0.050011 -0.883528
v -0.402360 0.684899 1.025829
v -0.402360 0.050011 0.863629
v -0.402360 0.050011 0.544658
v -0.402360 0.050011 -0.090091
v -0.402360 0.050011 0.227283
v -0.402360 0.050011 -0.724841
v -0.402360 0.050011 -0.407466
v -0.402360 0.050011 1.025829
v -0.402360 0.684899 -0.883528
v -0.402360 0.684899 0.863629
v -0.402360 0.684899 0.544658
v -0.402360 0.684899 -0.090091
v -0.402360 0.684899 0.227283
v -0.402360 0.684899 -0.724841
v -0.402360 0.684899 -0.407466
v 0.105512 0.050011 1.025829
v 0.105512 0.684899 -0.883528
v 0.105512 0.684899 0.863629
v 0.105512 0.684899 0.544658
v 0.105512 0.684899 -0.090091
v 0.105512 0.684899 0.227283
v 0.105512 0.684899 -0.724841
v 0.105512 0.684899 -0.407466
v 0.105512 0.050011 -0.883528
v 0.105512 0.684899 1.025829
v 0.105512 0.050011 0.863629
v 0.105512 0.050011 0.544658
v 0.105512 0.050011 -0.090091
v 0.105512 0.050011 0.227283
v 0.105512 0.050011 -0.724841
v 0.105512 0.050011 -0.407466
v -0.113953 0.050011 -0.883528
v -0.113953 0.684899 1.025829
v -0.113953 0.050011 0.863629
v -0.113953 0.050011 0.544658
v -0.113953 0.050011 -0.090091
v -0.113953 0.050011 0.227283
v -0.113953 0.050011 -0.724841
v -0.113953 0.050011 -0.407466
v -0.113953 0.050011 1.025829
v -0.113953 0.684899 -0.883528
v -0.113953 0.684899 0.863629
v -0.113953 0.684899 0.544658
v -0.113953 0.684899 -0.090091
v -0.113953 0.684899 0.227283
v -0.113953 0.684899 -0.724841
v -0.113953 0.684899 -0.407466
v 0.402910 0.803359 -0.090091
v 0.402910 0.803359 0.227283
v -0.402360 0.803359 0.544658
v -0.402360 0.803359 0.863601
v -0.402360 0.803359 -0.724841
v -0.402360 0.803359 -0.407466
v 0.105512 0.803359 -0.090091
v 0.105512 0.803359 0.227283
v -0.113953 0.803359 0.544658
v -0.113953 0.803359 0.863601
v -0.113953 0.803359 -0.724841
v -0.113953 0.803359 -0.407466
v 0.402910 0.803359 0.544658
v 0.402910 0.803359 0.863601
v 0.402910 0.803359 -0.724841
v 0.402910 0.803359 -0.407466
v -0.402360 0.803359 -0.090091
v -0.402360 0.803359 0.227283
v 0.105512 0.803359 0.544658
v 0.105512 0.803359 0.863601
v 0.105512 0.803359 -0.724841
v 0.105512 0.803359 -0.407466
v -0.113953 0.803359 -0.090091
v -0.113953 0.803359 0.227283
v 0.402910 0.632186 -0.724841
v 0.402910 0.632186 -0.407466
v 0.402910 0.632186 -0.090091
v 0.402910 0.632186 0.227283
v 0.402910 0.632186 0.544658
v 0.402910 0.632186 0.863629
v -0.402360 0.632186 0.863629
v -0.113953 0.632186 0.544658
v -0.402360 0.632186 0.544658
v -0.113953 0.632186 0.863601
v -0.113953 0.632186 -0.090091
v -0.402360 0.632186 -0.090091
v -0.113953 0.632186 0.227283
v -0.402360 0.632186 0.227283
v -0.113953 0.632186 -0.724841
v -0.402360 0.632186 -0.724841
v -0.113953 0.632186 -0.407466
v -0.402360 0.632186 -0.407466
v 0.105512 0.632186 0.863629
v 0.105512 0.632186 0.544658
v 0.105512 0.632186 -0.090091
v 0.105512 0.632186 0.227283
v 0.105512 0.632186 -0.724841
v 0.105512 0.632186 -0.407466
vt 0.837556 0.734010
vt 0.875000 0.734010
vt 0.875000 0.750000
vt 0.837556 0.750000
vt 0.375000 0.962556
vt 0.625000 0.962556
vt 0.625000 1.000000
vt 0.375000 1.000000
vt 0.375000 0.234356
vt 0.625000 0.234356
vt 0.625000 0.250000
vt 0.375000 0.250000
vt 0.337676 0.734010
vt 0.375000 0.734010
vt 0.375000 0.750000
vt 0.337676 0.750000
vt 0.625000 0.734010
vt 0.625000 0.750000
vt 0.375000 0.462676
vt 0.625000 0.462676
vt 0.625000 0.500000
vt 0.375000 0.500000
vt 0.375000 0.000000
vt 0.625000 0.000000
vt 0.625000 0.015990
vt 0.375000 0.015990
vt 0.837556 0.609509
vt 0.875000 0.609509
vt 0.875000 0.640797
vt 0.837556 0.640797
vt 0.337676 0.609509
vt 0.375000 0.609509
vt 0.375000 0.640797
vt 0.337676 0.640797
vt 0.625000 0.609509
vt 0.625000 0.640797
vt 0.375000 0.077760
vt 0.625000 0.077760
vt 0.625000 0.109203
vt 0.375000 0.109203
vt 0.875000 0.672240
vt 0.837556 0.672240
vt 0.375000 0.672240
vt 0.337676 0.672240
vt 0.625000 0.672240
vt 0.375000 0.546932
vt 0.625000 0.546932
vt 0.625000 0.578221
vt 0.375000 0.578221
vt 0.337676 0.546932
vt 0.337676 0.578221
vt 0.837556 0.546932
vt 0.875000 0.546932
vt 0.875000 0.578221
vt 0.837556 0.578221
vt 0.375000 0.140491
vt 0.625000 0.140491
vt 0.625000 0.171779
vt 0.375000 0.171779
vt 0.837556 0.500000
vt 0.875000 0.500000
vt 0.875000 0.515644
vt 0.837556 0.515644
vt 0.337676 0.500000
vt 0.375000 0.515644
vt 0.337676 0.515644
vt 0.625000 0.515644
vt 0.375000 0.203068
vt 0.625000 0.203068
vt 0.662324 0.515644
vt 0.662324 0.546932
vt 0.272960 0.500000
vt 0.272960 0.515644
vt 0.662324 0.500000
vt 0.662324 0.578221
vt 0.662324 0.609509
vt 0.272960 0.734010
vt 0.272960 0.734010
vt 0.337676 0.734010
vt 0.162444 0.578221
vt 0.162444 0.546932
vt 0.162444 0.546932
vt 0.162444 0.578221
vt 0.337676 0.609509
vt 0.337676 0.578221
vt 0.662324 0.640797
vt 0.662324 0.672240
vt 0.162444 0.672240
vt 0.162444 0.640797
vt 0.162444 0.640797
vt 0.162444 0.672240
vt 0.225203 0.609509
vt 0.225203 0.640797
vt 0.225203 0.640797
vt 0.225203 0.609509
vt 0.162444 0.609509
vt 0.162444 0.609509
vt 0.375000 0.397960
vt 0.625000 0.397960
vt 0.272960 0.750000
vt 0.625000 0.787324
vt 0.375000 0.787324
vt 0.662324 0.734010
vt 0.662324 0.750000
vt 0.125000 0.734010
vt 0.162444 0.734010
vt 0.162444 0.750000
vt 0.125000 0.750000
vt 0.625000 0.287444
vt 0.375000 0.287444
vt 0.125000 0.609509
vt 0.125000 0.640797
vt 0.125000 0.672240
vt 0.125000 0.546932
vt 0.125000 0.578221
vt 0.125000 0.500000
vt 0.162444 0.500000
vt 0.162444 0.515644
vt 0.125000 0.515644
vt 0.774797 0.546932
vt 0.774797 0.546932
vt 0.837556 0.546932
vt 0.774797 0.500000
vt 0.774797 0.515644
vt 0.662324 0.515644
vt 0.662324 0.546932
vt 0.774797 0.578221
vt 0.727040 0.578221
vt 0.727040 0.578221
vt 0.662324 0.578221
vt 0.774797 0.609509
vt 0.774797 0.640797
vt 0.727040 0.515644
vt 0.727040 0.546932
vt 0.727040 0.546932
vt 0.727040 0.515644
vt 0.375000 0.899797
vt 0.625000 0.899797
vt 0.774797 0.734010
vt 0.774797 0.750000
vt 0.727040 0.734010
vt 0.727040 0.750000
vt 0.625000 0.852040
vt 0.375000 0.852040
vt 0.727040 0.609509
vt 0.727040 0.640797
vt 0.837556 0.609509
vt 0.837556 0.578221
vt 0.837556 0.515644
vt 0.774797 0.515644
vt 0.727040 0.500000
vt 0.225203 0.734010
vt 0.225203 0.750000
vt 0.375000 0.350203
vt 0.625000 0.350203
vt 0.272960 0.609509
vt 0.272960 0.640797
vt 0.225203 0.546932
vt 0.225203 0.578221
vt 0.225203 0.578221
vt 0.225203 0.546932
vt 0.272960 0.546932
vt 0.272960 0.578221
vt 0.272960 0.546932
vt 0.272960 0.578221
vt 0.225203 0.500000
vt 0.225203 0.515644
vt 0.225203 0.515644
vt 0.162444 0.515644
vt 0.272960 0.515644
vt 0.272960 0.609509
vt 0.272960 0.640797
vt 0.337676 0.546932
vt 0.337676 0.515644
vt 0.774797 0.672240
vt 0.727040 0.672240
vt 0.774797 0.640797
vt 0.837556 0.640797
vt 0.837556 0.672240
vt 0.774797 0.672240
vt 0.727040 0.609509
vt 0.662324 0.609509
vt 0.774797 0.578221
vt 0.774797 0.609509
vt 0.662324 0.640797
vt 0.727040 0.640797
vt 0.727040 0.672240
vt 0.662324 0.672240
vt 0.337676 0.640797
vt 0.337676 0.672240
vt 0.272960 0.672240
vt 0.225203 0.672240
vt 0.225203 0.734010
vt 0.162444 0.734010
vn 0.0000 1.0000 0.0000
vn 0.0000 0.0000 1.0000
vn -1.0000 0.0000 0.0000
vn 0.0000 -1.0000 0.0000
vn 1.0000 0.0000 0.0000
vn 0.0000 0.0000 -1.0000
vn -0.0000 0.0002 1.0000
vn 0.0001 -0.0000 -1.0000
usemtl Material.001
s off
f 59/1/1 10/2/1 7/3/1 50/4/1
f 57/5/2 50/6/2 7/7/2 8/8/2
f 27/9/3 25/10/3 5/11/3 6/12/3
f 37/13/4 11/14/4 4/15/4 35/16/4
f 11/14/5 16/17/5 3/18/5 4/15/5
f 33/19/6 36/20/6 1/21/6 2/22/6
f 8/23/3 7/24/3 10/25/3 9/26/3
f 62/27/1 23/28/1 12/29/1 60/30/1
f 43/31/4 24/32/4 13/33/4 40/34/4
f 24/32/5 22/35/5 15/36/5 13/33/5
f 9/37/3 10/38/3 12/39/3 14/40/3
f 60/30/1 12/29/1 10/41/1 59/42/1
f 40/34/4 13/33/4 11/43/4 37/44/4
f 13/33/5 15/36/5 16/45/5 11/43/5
f 32/46/5 30/47/5 20/48/5 18/49/5
f 48/50/4 32/46/4 18/49/4 41/51/4
f 64/52/1 31/53/1 17/54/1 61/55/1
f 21/56/3 23/57/3 17/58/3 19/59/3
f 14/40/3 12/39/3 23/57/3 21/56/3
f 18/49/5 20/48/5 22/35/5 24/32/5
f 41/51/4 18/49/4 24/32/4 43/31/4
f 61/55/1 17/54/1 23/28/1 62/27/1
f 58/60/1 5/61/1 25/62/1 63/63/1
f 33/64/4 2/22/4 26/65/4 46/66/4
f 2/22/5 1/21/5 28/67/5 26/65/5
f 29/68/3 31/69/3 25/10/3 27/9/3
f 19/59/3 17/58/3 31/69/3 29/68/3
f 63/63/1 25/62/1 31/53/1 64/52/1
f 46/66/4 26/65/4 32/46/4 48/50/4
f 26/65/5 28/67/5 30/47/5 32/46/5
f 28/67/1 45/70/1 47/71/1 30/47/1
f 73/72/4 33/64/4 46/66/4 79/73/4
f 1/21/1 36/74/1 45/70/1 28/67/1
f 20/48/1 42/75/1 44/76/1 22/35/1
f 37/13/6 75/77/6 139/78/6 126/79/6
f 30/47/1 47/71/1 42/75/1 20/48/1
f 53/80/5 56/81/5 138/82/5 132/83/5
f 41/51/3 43/31/3 124/84/3 123/85/3
f 15/36/1 39/86/1 38/87/1 16/45/1
f 51/88/5 52/89/5 129/90/5 127/91/5
f 22/35/1 44/76/1 39/86/1 15/36/1
f 86/92/3 84/93/3 128/94/3 133/95/3
f 52/89/5 54/96/5 134/97/5 129/90/5
f 73/98/6 66/99/6 36/20/6 33/19/6
f 75/77/4 37/13/4 35/16/4 65/100/4
f 4/15/2 3/18/2 34/101/2 35/102/2
f 16/17/1 38/103/1 34/104/1 3/18/1
f 9/105/4 51/106/4 57/107/4 8/108/4
f 6/12/6 5/11/6 58/109/6 49/110/6
f 21/111/4 54/96/4 52/89/4 14/112/4
f 14/112/4 52/89/4 51/88/4 9/113/4
f 29/114/4 56/81/4 53/80/4 19/115/4
f 19/115/4 53/80/4 54/96/4 21/111/4
f 6/116/4 49/117/4 55/118/4 27/119/4
f 27/119/4 55/118/4 56/81/4 29/114/4
f 64/52/2 96/120/2 108/121/2 102/122/2
f 90/123/1 58/60/1 63/63/1 95/124/1
f 47/71/5 45/70/5 111/125/5 112/126/5
f 96/120/1 64/52/1 61/55/1 93/127/1
f 42/75/6 69/128/6 103/129/6 97/130/6
f 94/131/1 62/27/1 60/30/1 92/132/1
f 71/133/3 72/134/3 118/135/3 117/136/3
f 89/137/2 82/138/2 50/6/2 57/5/2
f 91/139/1 59/1/1 50/4/1 82/140/1
f 38/103/1 67/141/1 74/142/1 34/104/1
f 35/102/2 34/101/2 74/143/2 65/144/2
f 44/76/1 70/145/1 68/146/1 39/86/1
f 61/55/3 62/27/3 114/147/3 113/148/3
f 47/71/1 72/134/1 69/128/1 42/75/1
f 95/124/6 63/63/6 101/149/6 107/150/6
f 36/74/1 66/151/1 71/133/1 45/70/1
f 83/152/4 75/77/4 65/100/4 89/153/4
f 81/154/6 90/155/6 66/99/6 73/98/6
f 86/92/4 78/156/4 76/157/4 84/93/4
f 88/158/3 85/159/3 131/160/3 137/161/3
f 88/158/4 80/162/4 77/163/4 85/159/4
f 77/163/5 80/162/5 144/164/5 141/165/5
f 81/166/4 73/72/4 79/73/4 87/167/4
f 80/162/6 88/158/6 137/161/6 144/164/6
f 49/117/4 81/166/4 87/167/4 55/118/4
f 55/118/2 87/167/2 135/168/2 136/169/2
f 87/167/2 79/73/2 143/170/2 135/168/2
f 76/157/5 78/156/5 142/171/5 140/172/5
f 46/66/3 48/50/3 122/173/3 121/174/3
f 78/156/6 86/92/6 133/95/6 142/171/6
f 49/110/6 58/109/6 90/155/6 81/154/6
f 51/106/4 83/152/4 89/153/4 57/107/4
f 67/141/1 91/139/1 82/140/1 74/142/1
f 65/144/2 74/143/2 82/138/2 89/137/2
f 70/145/1 94/131/1 92/132/1 68/146/1
f 68/146/1 92/132/1 91/175/1 67/176/1
f 72/134/1 96/120/1 93/127/1 69/128/1
f 69/128/1 93/127/1 94/131/1 70/145/1
f 66/151/1 90/123/1 95/124/1 71/133/1
f 71/133/1 95/124/1 96/120/1 72/134/1
f 107/150/1 101/149/1 102/122/1 108/121/1
f 105/177/1 99/178/1 100/179/1 106/180/1
f 97/130/1 103/129/1 104/181/1 98/182/1
f 91/175/5 92/132/5 105/177/5 106/180/5
f 60/30/3 59/42/3 100/179/3 99/178/3
f 70/145/2 44/76/2 98/182/2 104/181/2
f 92/132/6 60/30/6 99/178/6 105/177/6
f 44/76/5 42/75/5 97/130/5 98/182/5
f 59/42/7 91/175/7 106/180/7 100/179/7
f 63/63/3 64/52/3 102/122/3 101/149/3
f 69/128/3 70/145/3 104/181/3 103/129/3
f 96/120/5 95/124/5 107/150/5 108/121/5
f 119/183/1 113/148/1 114/147/1 120/184/1
f 109/185/1 115/186/1 116/187/1 110/188/1
f 111/125/1 117/136/1 118/135/1 112/126/1
f 38/87/5 39/86/5 109/185/5 110/188/5
f 39/86/6 68/146/6 115/186/6 109/185/6
f 45/70/6 71/133/6 117/136/6 111/125/6
f 68/146/3 67/176/3 116/187/3 115/186/3
f 94/131/5 93/127/5 119/183/5 120/184/5
f 67/176/7 38/87/7 110/188/7 116/187/7
f 93/127/6 61/55/6 113/148/6 119/183/6
f 72/134/2 47/71/2 112/126/2 118/135/2
f 62/27/2 94/131/2 120/184/2 114/147/2
f 143/170/4 121/174/4 122/173/4 144/164/4
f 141/165/4 123/85/4 124/84/4 142/171/4
f 144/164/4 122/173/4 123/85/4 141/165/4
f 140/172/4 125/189/4 126/190/4 139/191/4
f 142/171/4 124/84/4 125/189/4 140/172/4
f 128/94/4 140/172/4 139/191/4 130/192/4
f 131/160/4 141/165/4 142/171/4 133/95/4
f 135/168/4 143/170/4 144/164/4 137/161/4
f 136/169/4 135/168/4 137/161/4 138/82/4
f 132/83/4 131/160/4 133/95/4 134/97/4
f 138/82/4 137/161/4 131/160/4 132/83/4
f 129/90/4 128/94/4 130/192/4 127/91/4
f 134/97/4 133/95/4 128/94/4 129/90/4
f 54/96/5 53/80/5 132/83/5 134/97/5
f 48/50/3 41/51/3 123/85/3 122/173/3
f 40/34/3 37/44/3 126/190/3 125/189/3
f 56/81/5 55/118/5 136/169/5 138/82/5
f 75/77/8 83/152/8 130/193/8 139/78/8
f 83/152/6 51/106/6 127/194/6 130/193/6
f 43/31/3 40/34/3 125/189/3 124/84/3
f 84/93/2 76/157/2 140/172/2 128/94/2
f 79/73/2 46/66/2 121/174/2 143/170/2
f 85/159/2 77/163/2 141/165/2 131/160/2
