# Blender v2.90.0 OBJ File: ''
# www.blender.org
mtllib 2x5.mtl
o Cube.003
v 0.574433 0.679499 -1.522782
v 0.574433 0.044610 -1.522782
v 0.574433 0.679499 1.643737
v 0.574433 0.044610 1.643737
v -0.574433 0.679499 -1.522782
v -0.574433 0.044610 -1.522782
v -0.574433 0.679499 1.643737
v -0.574433 0.044610 1.643737
v -0.574433 0.044610 1.173918
v 0.574433 0.679499 1.173918
v -0.574433 0.679499 1.173918
v 0.574433 0.044610 1.173918
v -0.574433 0.044610 1.481538
v 0.574433 0.679499 1.481538
v -0.574433 0.679499 1.481538
v 0.574433 0.044610 1.481538
v -0.574433 0.679499 -0.094595
v 0.574433 0.044610 -0.094595
v -0.574433 0.044610 -0.094595
v 0.574433 0.679499 -0.094595
v -0.574433 0.044610 0.224348
v 0.574433 0.679499 0.224348
v -0.574433 0.679499 0.224347
v 0.574433 0.044610 0.224347
v -0.574433 0.679499 -0.729345
v 0.574433 0.044610 -0.729345
v -0.574433 0.044610 -0.729345
v 0.574433 0.679499 -0.729345
v -0.574433 0.044610 -0.411970
v 0.574433 0.679499 -0.411970
v -0.574433 0.679499 -0.411970
v 0.574433 0.044610 -0.411970
v -0.574433 0.679499 -1.364094
v 0.574433 0.044610 -1.364094
v -0.574433 0.044610 -1.364094
v 0.574433 0.679499 -1.364094
v -0.574433 0.044610 -1.046720
v 0.574433 0.679499 -1.046720
v -0.574433 0.679499 -1.046720
v 0.574433 0.044610 -1.046720
v 0.402910 0.044610 -1.522782
v 0.402910 0.679499 1.643737
v 0.402910 0.044610 1.643737
v 0.402910 0.679499 -1.522782
v 0.402910 0.044610 1.173918
v 0.402910 0.679499 1.173918
v 0.402910 0.044610 1.481538
v 0.402910 0.679499 1.481538
v 0.402910 0.679499 -0.094595
v 0.402910 0.044610 -0.094595
v 0.402910 0.679499 0.224348
v 0.402910 0.044610 0.224347
v 0.402910 0.044610 -0.729345
v 0.402910 0.679499 -0.729345
v 0.402910 0.044610 -0.411970
v 0.402910 0.679499 -0.411970
v 0.402910 0.679499 -1.364094
v 0.402910 0.044610 -1.364094
v 0.402910 0.679499 -1.046720
v 0.402910 0.044610 -1.046720
v -0.402360 0.044610 -1.522782
v -0.402360 0.679499 1.643737
v -0.402360 0.044610 1.173918
v -0.402360 0.044610 1.481538
v -0.402360 0.044610 -0.094595
v -0.402360 0.044610 0.224348
v -0.402360 0.044610 -0.729345
v -0.402360 0.044610 -0.411970
v -0.402360 0.044610 -1.364094
v -0.402360 0.044610 -1.046720
v -0.402360 0.044610 1.643737
v -0.402360 0.679499 -1.522782
v -0.402360 0.679499 1.173918
v -0.402360 0.679499 1.481538
v -0.402360 0.679499 -0.094595
v -0.402360 0.679499 0.224347
v -0.402360 0.679499 -0.729345
v -0.402360 0.679499 -0.411970
v -0.402360 0.679499 -1.364094
v -0.402360 0.679499 -1.046720
v 0.105512 0.044610 1.643737
v 0.105512 0.679499 -1.522782
v 0.105512 0.679499 1.173918
v 0.105512 0.679499 1.481538
v 0.105512 0.679499 -0.094595
v 0.105512 0.679499 0.224348
v 0.105512 0.679499 -0.729345
v 0.105512 0.679499 -0.411970
v 0.105512 0.679499 -1.364094
v 0.105512 0.679499 -1.046720
v 0.105512 0.044610 -1.522782
v 0.105512 0.679499 1.643737
v 0.105512 0.044610 1.173918
v 0.105512 0.044610 1.481538
v 0.105512 0.044610 -0.094595
v 0.105512 0.044610 0.224348
v 0.105512 0.044610 -0.729345
v 0.105512 0.044610 -0.411970
v 0.105512 0.044610 -1.364094
v 0.105512 0.044610 -1.046720
v -0.113953 0.044610 -1.522782
v -0.113953 0.679499 1.643737
v -0.113953 0.044610 1.173918
v -0.113953 0.044610 1.481538
v -0.113953 0.044610 -0.094595
v -0.113953 0.044610 0.224348
v -0.113953 0.044610 -0.729345
v -0.113953 0.044610 -0.411970
v -0.113953 0.044610 -1.364094
v -0.113953 0.044610 -1.046720
v -0.113953 0.044610 1.643737
v -0.113953 0.679499 -1.522782
v -0.113953 0.679499 1.173918
v -0.113953 0.679499 1.481538
v -0.113953 0.679499 -0.094595
v -0.113953 0.679499 0.224348
v -0.113953 0.679499 -0.729345
v -0.113953 0.679499 -0.411970
v -0.113953 0.679499 -1.364094
v -0.113953 0.679499 -1.046720
v 0.402910 0.797959 1.173918
v 0.402910 0.797959 1.481538
v 0.402910 0.797959 -0.729345
v 0.402910 0.797959 -0.411970
v -0.402360 0.797959 -0.094595
v -0.402360 0.797959 0.224347
v -0.402360 0.797959 -1.364094
v -0.402360 0.797959 -1.046720
v 0.105512 0.797959 1.173918
v 0.105512 0.797959 1.481538
v 0.105512 0.797959 -0.729345
v 0.105512 0.797959 -0.411970
v -0.113953 0.797959 -0.094595
v -0.113953 0.797959 0.224348
v -0.113953 0.797959 -1.364094
v -0.113953 0.797959 -1.046720
v 0.402910 0.797959 -0.094595
v 0.402910 0.797959 0.224348
v 0.402910 0.797959 -1.364094
v 0.402910 0.797959 -1.046720
v -0.402360 0.797959 1.173918
v -0.402360 0.797959 1.481538
v -0.402360 0.797959 -0.729345
v -0.402360 0.797959 -0.411970
v 0.105512 0.797959 -0.094595
v 0.105512 0.797959 0.224348
v 0.105512 0.797959 -1.364094
v 0.105512 0.797959 -1.046720
v -0.113953 0.797959 1.173918
v -0.113953 0.797959 1.481538
v -0.113953 0.797959 -0.729345
v -0.113953 0.797959 -0.411970
v 0.402910 0.626785 -1.364094
v 0.402910 0.626785 -1.046720
v 0.402910 0.626785 -0.729345
v 0.402910 0.626785 -0.411970
v 0.402910 0.626785 -0.094595
v 0.402910 0.626785 0.224347
v 0.402910 0.626785 1.173918
v 0.402910 0.626785 1.481538
v -0.113953 0.626785 1.173918
v -0.402360 0.626785 1.173918
v -0.113953 0.626785 1.481538
v -0.402360 0.626785 1.481538
v -0.113953 0.626785 -0.094595
v -0.402360 0.626785 -0.094595
v -0.113953 0.626785 0.224348
v -0.402360 0.626785 0.224348
v -0.113953 0.626785 -0.729345
v -0.402360 0.626785 -0.729345
v -0.113953 0.626785 -0.411970
v -0.402360 0.626785 -0.411970
v -0.113953 0.626785 -1.364094
v -0.402360 0.626785 -1.364094
v -0.113953 0.626785 -1.046720
v -0.402360 0.626785 -1.046720
v 0.105512 0.626785 1.173918
v 0.105512 0.626785 1.481538
v 0.105512 0.626785 -0.094595
v 0.105512 0.626785 0.224348
v 0.105512 0.626785 -0.729345
v 0.105512 0.626785 -0.411970
v 0.105512 0.626785 -1.364094
v 0.105512 0.626785 -1.046720
v -0.574433 0.044610 0.853252
v 0.574433 0.679499 0.853252
v -0.574433 0.679499 0.853251
v 0.574433 0.044610 0.853251
v 0.402910 0.679499 0.853252
v 0.402910 0.044610 0.853251
v -0.402360 0.044610 0.853252
v -0.402360 0.679499 0.853251
v 0.105512 0.679499 0.853252
v 0.105512 0.044610 0.853252
v -0.113953 0.044610 0.853252
v -0.113953 0.679499 0.853252
v 0.402910 0.626785 0.853251
v -0.402360 0.626785 0.853252
v 0.402910 0.800688 0.538800
v 0.105512 0.800688 0.853252
v -0.574433 0.679499 0.538799
v 0.574433 0.044610 0.538799
v -0.574433 0.044610 0.538800
v 0.574433 0.679499 0.538800
v 0.402910 0.679499 0.538800
v 0.402910 0.044610 0.538799
v -0.402360 0.044610 0.538800
v -0.402360 0.679499 0.538799
v 0.105512 0.679499 0.538800
v 0.105512 0.044610 0.538800
v -0.113953 0.044610 0.538800
v -0.113953 0.679499 0.538800
v 0.402910 0.626785 0.538799
v -0.402360 0.626785 0.538800
v 0.105512 0.800688 0.538800
v 0.402910 0.800688 0.853252
v -0.113953 0.800688 0.538800
v -0.402360 0.800688 0.538799
v -0.113953 0.800688 0.853252
v -0.402360 0.800688 0.853251
v 0.105512 0.626576 0.853252
v -0.113953 0.626576 0.853252
v 0.105512 0.626576 0.538800
v -0.113953 0.626576 0.538800
vt 0.837556 0.734010
vt 0.875000 0.734010
vt 0.875000 0.750000
vt 0.837556 0.750000
vt 0.375000 0.962556
vt 0.625000 0.962556
vt 0.625000 1.000000
vt 0.375000 1.000000
vt 0.375000 0.234356
vt 0.625000 0.234356
vt 0.625000 0.250000
vt 0.375000 0.250000
vt 0.337676 0.734010
vt 0.375000 0.734010
vt 0.375000 0.750000
vt 0.337676 0.750000
vt 0.625000 0.734010
vt 0.625000 0.750000
vt 0.375000 0.462676
vt 0.625000 0.462676
vt 0.625000 0.500000
vt 0.375000 0.500000
vt 0.375000 0.693065
vt 0.625000 0.693065
vt 0.625000 0.703683
vt 0.375000 0.703683
vt 0.337676 0.693065
vt 0.337676 0.703683
vt 0.375000 0.015990
vt 0.625000 0.015990
vt 0.625000 0.046317
vt 0.375000 0.046317
vt 0.837556 0.693065
vt 0.875000 0.693065
vt 0.875000 0.703683
vt 0.837556 0.703683
vt 0.375000 0.000000
vt 0.625000 0.000000
vt 0.837556 0.609509
vt 0.875000 0.609509
vt 0.875000 0.640797
vt 0.837556 0.640797
vt 0.337676 0.609509
vt 0.375000 0.609509
vt 0.375000 0.640797
vt 0.337676 0.640797
vt 0.625000 0.609509
vt 0.625000 0.640797
vt 0.375000 0.077760
vt 0.625000 0.077760
vt 0.625000 0.109203
vt 0.375000 0.109203
vt 0.375000 0.067347
vt 0.625000 0.067347
vt 0.875000 0.672240
vt 0.837556 0.672240
vt 0.375000 0.672240
vt 0.337676 0.672240
vt 0.625000 0.672240
vt 0.375000 0.546932
vt 0.625000 0.546932
vt 0.625000 0.578221
vt 0.375000 0.578221
vt 0.337676 0.546932
vt 0.337676 0.578221
vt 0.837556 0.546932
vt 0.875000 0.546932
vt 0.875000 0.578221
vt 0.837556 0.578221
vt 0.375000 0.140491
vt 0.625000 0.140491
vt 0.625000 0.171779
vt 0.375000 0.171779
vt 0.837556 0.500000
vt 0.875000 0.500000
vt 0.875000 0.515644
vt 0.837556 0.515644
vt 0.337676 0.500000
vt 0.375000 0.515644
vt 0.337676 0.515644
vt 0.625000 0.515644
vt 0.375000 0.203068
vt 0.625000 0.203068
vt 0.225203 0.693065
vt 0.225203 0.703683
vt 0.225203 0.703683
vt 0.225203 0.693065
vt 0.662324 0.515644
vt 0.662324 0.546932
vt 0.272960 0.500000
vt 0.272960 0.515644
vt 0.662324 0.500000
vt 0.662324 0.578221
vt 0.662324 0.609509
vt 0.272960 0.734010
vt 0.272960 0.734010
vt 0.337676 0.734010
vt 0.162444 0.578221
vt 0.162444 0.546932
vt 0.162444 0.546932
vt 0.162444 0.578221
vt 0.337676 0.609509
vt 0.337676 0.578221
vt 0.662324 0.640797
vt 0.662324 0.672240
vt 0.162444 0.672240
vt 0.162444 0.640797
vt 0.162444 0.640797
vt 0.162444 0.672240
vt 0.662324 0.703683
vt 0.662324 0.734010
vt 0.225203 0.609509
vt 0.225203 0.640797
vt 0.225203 0.640797
vt 0.225203 0.609509
vt 0.662324 0.693065
vt 0.162444 0.609509
vt 0.162444 0.609509
vt 0.375000 0.397960
vt 0.625000 0.397960
vt 0.272960 0.750000
vt 0.625000 0.787324
vt 0.375000 0.787324
vt 0.662324 0.750000
vt 0.125000 0.734010
vt 0.162444 0.734010
vt 0.162444 0.750000
vt 0.125000 0.750000
vt 0.625000 0.287444
vt 0.375000 0.287444
vt 0.125000 0.693065
vt 0.162444 0.693065
vt 0.162444 0.703683
vt 0.125000 0.703683
vt 0.125000 0.609509
vt 0.125000 0.640797
vt 0.125000 0.672240
vt 0.125000 0.546932
vt 0.125000 0.578221
vt 0.125000 0.500000
vt 0.162444 0.500000
vt 0.162444 0.515644
vt 0.125000 0.515644
vt 0.774797 0.546932
vt 0.774797 0.546932
vt 0.837556 0.546932
vt 0.774797 0.500000
vt 0.774797 0.515644
vt 0.662324 0.515644
vt 0.662324 0.546932
vt 0.774797 0.578221
vt 0.727040 0.578221
vt 0.727040 0.578221
vt 0.662324 0.578221
vt 0.774797 0.609509
vt 0.774797 0.640797
vt 0.727040 0.515644
vt 0.727040 0.546932
vt 0.727040 0.546932
vt 0.727040 0.515644
vt 0.774797 0.693065
vt 0.774797 0.703683
vt 0.375000 0.899797
vt 0.625000 0.899797
vt 0.774797 0.734010
vt 0.774797 0.750000
vt 0.727040 0.734010
vt 0.727040 0.750000
vt 0.625000 0.852040
vt 0.375000 0.852040
vt 0.727040 0.693065
vt 0.727040 0.703683
vt 0.727040 0.703683
vt 0.662324 0.703683
vt 0.727040 0.609509
vt 0.727040 0.640797
vt 0.837556 0.609509
vt 0.837556 0.578221
vt 0.837556 0.515644
vt 0.774797 0.515644
vt 0.727040 0.500000
vt 0.774797 0.703683
vt 0.774797 0.734010
vt 0.225203 0.734010
vt 0.225203 0.750000
vt 0.375000 0.350203
vt 0.625000 0.350203
vt 0.272960 0.693065
vt 0.272960 0.703683
vt 0.162444 0.703683
vt 0.162444 0.734010
vt 0.272960 0.609509
vt 0.272960 0.640797
vt 0.225203 0.546932
vt 0.225203 0.578221
vt 0.225203 0.578221
vt 0.225203 0.546932
vt 0.272960 0.546932
vt 0.272960 0.578221
vt 0.272960 0.546932
vt 0.272960 0.578221
vt 0.225203 0.500000
vt 0.225203 0.515644
vt 0.162444 0.682652
vt 0.162444 0.682652
vt 0.337676 0.703683
vt 0.337676 0.693065
vt 0.225203 0.515644
vt 0.162444 0.515644
vt 0.272960 0.515644
vt 0.272960 0.609509
vt 0.272960 0.640797
vt 0.337676 0.546932
vt 0.337676 0.515644
vt 0.774797 0.672240
vt 0.727040 0.672240
vt 0.774797 0.640797
vt 0.837556 0.640797
vt 0.837556 0.672240
vt 0.774797 0.672240
vt 0.727040 0.734010
vt 0.662324 0.734010
vt 0.727040 0.609509
vt 0.662324 0.609509
vt 0.774797 0.578221
vt 0.774797 0.609509
vt 0.837556 0.703683
vt 0.837556 0.734010
vt 0.662324 0.640797
vt 0.727040 0.640797
vt 0.727040 0.672240
vt 0.662324 0.672240
vt 0.337676 0.640797
vt 0.337676 0.672240
vt 0.272960 0.672240
vt 0.272960 0.703683
vt 0.272960 0.693065
vt 0.225203 0.734010
vt 0.225203 0.672240
vt 0.162444 0.693065
vt 0.272960 0.672240
vt 0.225203 0.672240
vt 0.272960 0.682652
vt 0.272960 0.682653
vt 0.225203 0.682652
vt 0.337676 0.682653
vt 0.727040 0.682652
vt 0.774797 0.682653
vt 0.337676 0.682652
vt 0.225203 0.682653
vt 0.662324 0.693065
vt 0.727040 0.693065
vt 0.837556 0.682653
vt 0.837556 0.682653
vt 0.774797 0.682653
vt 0.125000 0.682652
vt 0.625000 0.682653
vt 0.662324 0.682652
vt 0.837556 0.693065
vt 0.625000 0.056935
vt 0.375000 0.056935
vt 0.875000 0.682652
vt 0.375000 0.682653
vt 0.774797 0.693065
vt 0.662324 0.682652
vt 0.727040 0.682652
vn 0.0000 1.0000 0.0000
vn 0.0000 0.0000 1.0000
vn -1.0000 0.0000 0.0000
vn 0.0000 -1.0000 0.0000
vn 1.0000 0.0000 0.0000
vn 0.0000 0.0000 -1.0000
vn 0.0004 -1.0000 0.0003
vn -0.0004 -1.0000 0.0003
vn -0.0007 -1.0000 0.0000
vn 0.0007 -1.0000 0.0000
vn 0.0004 -1.0000 -0.0003
vn -0.0004 -1.0000 -0.0003
usemtl Material.003
s off
f 74/1/1 15/2/1 7/3/1 62/4/1
f 71/5/2 62/6/2 7/7/2 8/8/2
f 35/9/3 33/10/3 5/11/3 6/12/3
f 47/13/4 16/14/4 4/15/4 43/16/4
f 16/14/5 14/17/5 3/18/5 4/15/5
f 41/19/6 44/20/6 1/21/6 2/22/6
f 188/23/5 186/24/5 10/25/5 12/26/5
f 190/27/4 188/23/4 12/26/4 45/28/4
f 13/29/3 15/30/3 11/31/3 9/32/3
f 192/33/1 187/34/1 11/35/1 73/36/1
f 8/37/3 7/38/3 15/30/3 13/29/3
f 12/26/5 10/25/5 14/17/5 16/14/5
f 45/28/4 12/26/4 16/14/4 47/13/4
f 73/36/1 11/35/1 15/2/1 74/1/1
f 78/39/1 31/40/1 17/41/1 75/42/1
f 55/43/4 32/44/4 18/45/4 50/46/4
f 32/44/5 30/47/5 20/48/5 18/45/5
f 21/49/3 23/50/3 17/51/3 19/52/3
f 203/53/3 201/54/3 23/50/3 21/49/3
f 75/42/1 17/41/1 23/55/1 76/56/1
f 50/46/4 18/45/4 24/57/4 52/58/4
f 18/45/5 20/48/5 22/59/5 24/57/5
f 40/60/5 38/61/5 28/62/5 26/63/5
f 60/64/4 40/60/4 26/63/4 53/65/4
f 80/66/1 39/67/1 25/68/1 77/69/1
f 29/70/3 31/71/3 25/72/3 27/73/3
f 19/52/3 17/51/3 31/71/3 29/70/3
f 26/63/5 28/62/5 30/47/5 32/44/5
f 53/65/4 26/63/4 32/44/4 55/43/4
f 77/69/1 25/68/1 31/40/1 78/39/1
f 72/74/1 5/75/1 33/76/1 79/77/1
f 41/78/4 2/22/4 34/79/4 58/80/4
f 2/22/5 1/21/5 36/81/5 34/79/5
f 37/82/3 39/83/3 33/10/3 35/9/3
f 27/73/3 25/72/3 39/83/3 37/82/3
f 79/77/1 33/76/1 39/67/1 80/66/1
f 58/80/4 34/79/4 40/60/4 60/64/4
f 34/79/5 36/81/5 38/61/5 40/60/5
f 195/84/3 103/85/3 161/86/3 222/87/3
f 36/81/1 57/88/1 59/89/1 38/61/1
f 91/90/4 41/78/4 58/80/4 99/91/4
f 1/21/1 44/92/1 57/88/1 36/81/1
f 28/62/1 54/93/1 56/94/1 30/47/1
f 47/13/6 94/95/6 178/96/6 160/97/6
f 38/61/1 59/89/1 54/93/1 28/62/1
f 67/98/5 70/99/5 176/100/5 170/101/5
f 53/65/3 55/43/3 156/102/3 155/103/3
f 20/48/1 49/104/1 51/105/1 22/59/1
f 66/106/5 65/107/5 166/108/5 168/109/5
f 30/47/1 56/94/1 49/104/1 20/48/1
f 10/25/1 46/110/1 48/111/1 14/17/1
f 108/112/3 105/113/3 165/114/3 171/115/3
f 186/24/1 189/116/1 46/110/1 10/25/1
f 65/107/5 68/117/5 172/118/5 166/108/5
f 91/119/6 82/120/6 44/20/6 41/19/6
f 94/95/4 47/13/4 43/16/4 81/121/4
f 4/15/2 3/18/2 42/122/2 43/123/2
f 14/17/1 48/111/1 42/124/1 3/18/1
f 13/125/4 64/126/4 71/127/4 8/128/4
f 6/12/6 5/11/6 72/129/6 61/130/6
f 185/131/4 191/132/4 63/133/4 9/134/4
f 9/134/4 63/133/4 64/126/4 13/125/4
f 29/135/4 68/117/4 65/107/4 19/136/4
f 19/136/4 65/107/4 66/106/4 21/137/4
f 37/138/4 70/99/4 67/98/4 27/139/4
f 27/139/4 67/98/4 68/117/4 29/135/4
f 6/140/4 61/141/4 69/142/4 35/143/4
f 35/143/4 69/142/4 70/99/4 37/138/4
f 80/66/2 120/144/2 136/145/2 128/146/2
f 112/147/1 72/74/1 79/77/1 119/148/1
f 59/89/5 57/88/5 139/149/5 140/150/5
f 120/144/1 80/66/1 77/69/1 117/151/1
f 54/93/6 87/152/6 131/153/6 123/154/6
f 118/155/1 78/39/1 75/42/1 115/156/1
f 89/157/3 90/158/3 148/159/3 147/160/3
f 196/161/1 192/33/1 73/36/1 113/162/1
f 111/163/2 102/164/2 62/6/2 71/5/2
f 114/165/1 74/1/1 62/4/1 102/166/1
f 48/111/1 84/167/1 92/168/1 42/124/1
f 43/123/2 42/122/2 92/169/2 81/170/2
f 189/116/1 193/171/1 83/172/1 46/110/1
f 46/110/6 83/172/6 129/173/6 121/174/6
f 56/94/1 88/175/1 85/176/1 49/104/1
f 77/69/3 78/39/3 144/177/3 143/178/3
f 59/89/1 90/158/1 87/152/1 54/93/1
f 119/148/6 79/77/6 127/179/6 135/180/6
f 44/92/1 82/181/1 89/157/1 57/88/1
f 114/165/5 113/162/5 149/182/5 150/183/5
f 104/184/4 94/95/4 81/121/4 111/185/4
f 101/186/6 112/187/6 82/120/6 91/119/6
f 195/84/4 194/188/4 93/189/4 103/85/4
f 64/126/5 63/133/5 162/190/5 164/191/5
f 108/112/4 98/192/4 95/193/4 105/113/4
f 110/194/3 107/195/3 169/196/3 175/197/3
f 110/194/4 100/198/4 97/199/4 107/195/4
f 97/199/5 100/198/5 184/200/5 181/201/5
f 101/202/4 91/90/4 99/91/4 109/203/4
f 207/204/5 66/106/5 168/109/5 214/205/5
f 100/198/6 110/194/6 175/197/6 184/200/6
f 61/141/4 101/202/4 109/203/4 69/142/4
f 190/27/3 45/28/3 159/206/3 197/207/3
f 69/142/2 109/203/2 173/208/2 174/209/2
f 109/203/2 99/91/2 183/210/2 173/208/2
f 95/193/5 98/192/5 182/211/5 179/212/5
f 58/80/3 60/64/3 154/213/3 153/214/3
f 98/192/6 108/112/6 171/115/6 182/211/6
f 61/130/6 72/129/6 112/187/6 101/186/6
f 64/126/4 104/184/4 111/185/4 71/127/4
f 84/167/1 114/165/1 102/166/1 92/168/1
f 81/170/2 92/169/2 102/164/2 111/163/2
f 193/171/1 196/161/1 113/162/1 83/172/1
f 83/172/1 113/162/1 114/165/1 84/167/1
f 88/175/1 118/155/1 115/156/1 85/176/1
f 85/176/1 115/156/1 116/215/1 86/216/1
f 90/158/1 120/144/1 117/151/1 87/152/1
f 87/152/1 117/151/1 118/155/1 88/175/1
f 82/181/1 112/147/1 119/148/1 89/157/1
f 89/157/1 119/148/1 120/144/1 90/158/1
f 135/180/1 127/179/1 128/146/1 136/145/1
f 133/217/1 125/218/1 126/219/1 134/220/1
f 121/174/1 129/173/1 130/221/1 122/222/1
f 123/154/1 131/153/1 132/223/1 124/224/1
f 83/172/3 84/167/3 130/221/3 129/173/3
f 116/215/5 115/156/5 133/217/5 134/220/5
f 84/167/2 48/111/2 122/222/2 130/221/2
f 75/42/3 76/56/3 126/219/3 125/218/3
f 88/175/2 56/94/2 124/224/2 132/223/2
f 115/156/6 75/42/6 125/218/6 133/217/6
f 56/94/5 54/93/5 123/154/5 124/224/5
f 76/56/2 116/215/2 134/220/2 126/219/2
f 48/111/5 46/110/5 121/174/5 122/222/5
f 79/77/3 80/66/3 128/146/3 127/179/3
f 87/152/3 88/175/3 132/223/3 131/153/3
f 120/144/5 119/148/5 135/180/5 136/145/5
f 151/225/1 143/178/1 144/177/1 152/226/1
f 149/182/1 141/227/1 142/228/1 150/183/1
f 137/229/1 145/230/1 146/231/1 138/232/1
f 139/149/1 147/160/1 148/159/1 140/150/1
f 113/162/6 73/36/6 141/227/6 149/182/6
f 51/105/5 49/104/5 137/229/5 138/232/5
f 74/1/2 114/165/2 150/183/2 142/228/2
f 49/104/6 85/176/6 145/230/6 137/229/6
f 57/88/6 89/157/6 147/160/6 139/149/6
f 85/176/3 86/216/3 146/231/3 145/230/3
f 118/155/5 117/151/5 151/225/5 152/226/5
f 73/36/3 74/1/3 142/228/3 141/227/3
f 86/216/2 51/105/2 138/232/2 146/231/2
f 117/151/6 77/69/6 143/178/6 151/225/6
f 90/158/2 59/89/2 140/150/2 148/159/2
f 78/39/2 118/155/2 152/226/2 144/177/2
f 183/210/4 153/214/4 154/213/4 184/200/4
f 181/201/4 155/103/4 156/102/4 182/211/4
f 184/200/4 154/213/4 155/103/4 181/201/4
f 179/212/4 157/233/4 158/234/4 180/235/4
f 182/211/4 156/102/4 157/233/4 179/212/4
f 177/236/4 159/206/4 160/97/4 178/96/4
f 221/237/7 197/207/7 159/206/7 177/236/7
f 161/86/4 177/236/4 178/96/4 163/238/4
f 165/114/4 179/212/4 180/235/4 167/239/4
f 169/196/4 181/201/4 182/211/4 171/115/4
f 173/208/4 183/210/4 184/200/4 175/197/4
f 174/209/4 173/208/4 175/197/4 176/100/4
f 170/101/4 169/196/4 171/115/4 172/118/4
f 176/100/4 175/197/4 169/196/4 170/101/4
f 166/108/4 165/114/4 167/239/4 168/109/4
f 172/118/4 171/115/4 165/114/4 166/108/4
f 162/190/4 161/86/4 163/238/4 164/191/4
f 198/240/8 222/87/8 161/86/8 162/190/8
f 68/117/5 67/98/5 170/101/5 172/118/5
f 60/64/3 53/65/3 155/103/3 154/213/3
f 50/46/3 52/58/3 158/234/3 157/233/3
f 103/85/2 93/189/2 177/236/2 161/86/2
f 70/99/5 69/142/5 174/209/5 176/100/5
f 94/95/6 104/184/6 163/238/6 178/96/6
f 104/184/6 64/126/6 164/191/6 163/238/6
f 55/43/3 50/46/3 157/233/3 156/102/3
f 105/113/2 95/193/2 179/212/2 165/114/2
f 99/91/2 58/80/2 153/214/2 183/210/2
f 96/241/6 106/242/6 167/239/6 180/235/6
f 210/243/5 96/241/5 180/235/5 223/244/5
f 107/195/2 97/199/2 181/201/2 169/196/2
f 45/28/3 47/13/3 160/97/3 159/206/3
f 93/189/5 194/188/5 221/237/5 177/236/5
f 214/205/9 224/245/9 222/87/9 198/240/9
f 223/244/10 213/246/10 197/207/10 221/237/10
f 209/247/1 212/248/1 196/161/1 193/171/1
f 206/249/3 190/27/3 197/207/3 213/246/3
f 63/133/5 191/132/5 198/240/5 162/190/5
f 211/250/2 210/243/2 223/244/2 224/245/2
f 193/171/2 189/116/2 216/251/2 200/252/2
f 212/248/6 208/253/6 218/254/6 217/255/6
f 203/256/4 207/204/4 191/132/4 185/131/4
f 204/257/1 205/258/1 189/116/1 186/24/1
f 208/253/3 192/33/3 220/259/3 218/254/3
f 9/32/3 11/31/3 187/260/3 185/261/3
f 208/253/1 201/262/1 187/34/1 192/33/1
f 206/249/4 202/263/4 188/23/4 190/27/4
f 202/263/5 204/257/5 186/24/5 188/23/5
f 24/57/5 22/59/5 204/257/5 202/263/5
f 52/58/4 24/57/4 202/263/4 206/249/4
f 76/56/1 23/55/1 201/262/1 208/253/1
f 106/242/3 211/250/3 224/245/3 167/239/3
f 22/59/1 51/105/1 205/258/1 204/257/1
f 21/137/4 66/106/4 207/204/4 203/256/4
f 116/215/1 76/56/1 208/253/1 212/248/1
f 51/105/1 86/216/1 209/247/1 205/258/1
f 106/242/4 96/241/4 210/243/4 211/250/4
f 52/58/3 206/249/3 213/246/3 158/234/3
f 86/216/1 116/215/1 212/248/1 209/247/1
f 180/235/11 158/234/11 213/246/11 223/244/11
f 168/109/12 167/239/12 224/245/12 214/205/12
f 224/245/4 223/244/4 221/237/4 222/87/4
f 191/132/5 207/204/5 214/205/5 198/240/5
f 185/261/3 187/260/3 201/54/3 203/53/3
f 196/161/5 212/248/5 217/255/5 219/264/5
f 192/33/2 196/161/2 219/264/2 220/259/2
f 194/188/6 195/84/6 222/87/6 221/237/6
f 217/255/1 218/254/1 220/259/1 219/264/1
f 199/265/1 215/266/1 200/252/1 216/251/1
f 209/247/3 193/171/3 200/252/3 215/266/3
f 189/116/5 205/258/5 199/265/5 216/251/5
f 205/258/6 209/247/6 215/266/6 199/265/6
