# Blender v2.90.0 OBJ File: ''
# www.blender.org
mtllib Key.mtl
o Cube_Cube.001
v 0.042950 0.697585 -1.559198
v 0.042850 0.764266 -1.553900
v 0.040421 0.764266 -1.423980
v 0.040520 0.697585 -1.429279
v 0.045250 0.677446 -1.682279
v 0.045152 0.764266 -1.676980
v 0.048993 0.520749 -1.882446
v 0.048336 0.197220 -1.847333
v 0.052683 0.443426 -2.079820
v 0.052829 0.528932 -2.087622
v 0.049309 0.676388 -1.899337
v 0.049487 0.764266 -1.908874
v 0.038632 0.764266 -1.328251
v 0.038731 0.703284 -1.333549
v 0.053578 0.484459 -2.127684
v 0.053578 0.530946 -2.127684
v 0.035691 0.764266 -1.170981
v 0.035790 0.703447 -1.176279
v 0.034413 0.757427 -1.102602
v 0.034512 0.698165 -1.107901
v 0.030705 0.757427 -0.904304
v 0.030804 0.698165 -0.909603
v 0.030194 0.757427 -0.876953
v 0.030293 0.703792 -0.882252
v 0.026870 0.757427 -0.699170
v 0.026969 0.705769 -0.704468
v 0.025336 0.764266 -0.617115
v 0.025435 0.707124 -0.622414
v 0.023035 0.764266 -0.494034
v 0.023134 0.707124 -0.499333
v 0.019839 0.764266 -0.323089
v 0.019938 0.705489 -0.328387
v 0.010635 0.777944 0.169237
v 0.010674 0.685825 0.167117
v 0.006058 0.592668 0.413984
v 0.006036 0.644684 0.415181
v -0.000627 0.889005 0.771587
v -0.000612 0.759110 0.770791
v 0.006098 0.500546 0.411864
v 0.006181 0.309051 0.407458
v 0.010890 0.183542 0.155561
v 0.010744 0.522677 0.163363
v -0.000531 0.050852 0.766454
v -0.000488 -0.254156 0.764127
v 0.010635 0.777944 0.169237
v -0.000743 1.195125 0.777804
v -0.005982 0.253871 1.058014
v -0.006141 0.668725 1.066487
v -0.010842 0.791622 1.317993
v -0.010587 0.121991 1.304317
v -0.044143 0.697585 -1.560827
v -0.046572 0.697585 -1.430907
v -0.046671 0.764266 -1.425609
v -0.044242 0.764266 -1.555528
v -0.041841 0.677446 -1.683907
v -0.041941 0.764266 -1.678609
v -0.038099 0.520749 -1.884073
v -0.034264 0.528932 -2.089251
v -0.034409 0.443426 -2.081447
v -0.038756 0.197220 -1.848962
v -0.037784 0.676388 -1.900964
v -0.037605 0.764266 -1.910502
v -0.048362 0.706778 -1.335178
v -0.048461 0.764266 -1.329878
v -0.033514 0.530946 -2.129312
v -0.033514 0.484459 -2.129312
v -0.051302 0.703163 -1.177908
v -0.051401 0.764266 -1.172609
v -0.052580 0.698165 -1.109529
v -0.052680 0.757428 -1.104231
v -0.056288 0.698165 -0.911231
v -0.056386 0.757427 -0.905933
v -0.056799 0.703393 -0.883880
v -0.056898 0.757427 -0.878582
v -0.060123 0.707861 -0.706096
v -0.060222 0.757427 -0.700797
v -0.061657 0.707124 -0.624042
v -0.061756 0.764266 -0.618744
v -0.063958 0.707124 -0.500960
v -0.064058 0.764266 -0.495662
v -0.067154 0.710214 -0.330015
v -0.067254 0.764266 -0.324716
v -0.076418 0.685825 0.165489
v -0.076458 0.777944 0.167608
v -0.081033 0.592668 0.412356
v -0.087705 0.759110 0.769163
v -0.087719 0.889005 0.769958
v -0.081056 0.644684 0.413552
v -0.080993 0.500546 0.410237
v -0.076348 0.522677 0.161734
v -0.076202 0.183542 0.153932
v -0.080912 0.309051 0.405831
v -0.087580 -0.254156 0.762499
v -0.087624 0.050852 0.764826
v -0.087836 1.195125 0.776176
v -0.093074 0.253871 1.056386
v -0.097679 0.121991 1.302689
v -0.097935 0.791622 1.316364
v -0.093233 0.668725 1.064859
v 0.045152 0.764266 -1.676980
v 0.042850 0.764266 -1.553900
v 0.025336 0.764266 -0.617115
v 0.023035 0.764266 -0.494034
v 0.031344 0.375035 -0.938494
v -0.055747 0.375035 -0.940122
v -0.052040 0.375035 -1.138419
v 0.035052 0.375035 -1.136792
v 0.043490 0.334000 -1.588089
v -0.043603 0.334000 -1.589717
v -0.041301 0.204060 -1.712798
v 0.045790 0.204059 -1.711169
v 0.034413 0.757427 -1.102602
v 0.030705 0.757427 -0.904304
v 0.041060 0.334000 -1.458170
v -0.046032 0.334000 -1.459798
v 0.020478 0.176703 -0.357277
v -0.066614 0.176703 -0.358906
v -0.063418 0.395552 -0.529851
v 0.023674 0.395552 -0.528224
v 0.040421 0.764266 -1.423980
v 0.019839 0.764266 -0.323089
v 0.053578 0.565935 -2.127684
v -0.033514 0.565935 -2.129312
v -0.034154 0.593291 -2.095123
v 0.052939 0.593291 -2.093495
v 0.030833 0.313483 -0.911143
v -0.056259 0.313483 -0.912771
v 0.030194 0.757427 -0.876953
v 0.039271 0.224576 -1.362440
v -0.047822 0.224576 -1.364069
v 0.052683 0.443426 -2.079820
v 0.053578 0.484459 -2.127684
v 0.038632 0.764266 -1.328251
v 0.053578 0.553307 -2.127684
v -0.033514 0.553307 -2.129312
v 0.027509 0.313483 -0.733358
v -0.059582 0.313483 -0.734987
v -0.000586 0.529060 0.769383
v -0.087678 0.529060 0.767755
v 0.048336 0.197220 -1.847333
v 0.026870 0.757427 -0.699170
v 0.036330 0.224576 -1.205170
v -0.050762 0.224576 -1.206798
v 0.049487 0.764266 -1.908874
v 0.035691 0.764266 -1.170981
v 0.025975 0.395552 -0.651305
v -0.061117 0.395552 -0.652933
v 0.043490 0.334000 -1.588089
v 0.045790 0.204059 -1.711169
v 0.053578 0.565935 -2.127684
v 0.052939 0.593291 -2.093495
v 0.053578 0.553307 -2.127684
v 0.041060 0.334000 -1.458170
v 0.039271 0.224576 -1.362440
v 0.036330 0.224576 -1.205170
v 0.035052 0.375035 -1.136792
v 0.031344 0.375035 -0.938494
v 0.030833 0.313483 -0.911143
v 0.027509 0.313483 -0.733358
v 0.025975 0.395552 -0.651305
v 0.023674 0.395552 -0.528224
v 0.020478 0.176703 -0.357277
v 0.010744 0.522677 0.163363
v 0.010890 0.183542 0.155561
v 0.010674 0.685825 0.167117
v 0.053578 0.530946 -2.127684
v -0.066978 0.604037 -0.339399
v 0.018026 0.633951 -1.343323
v 0.015085 0.591269 -1.186053
v 0.035965 0.590917 -1.185663
v 0.038906 0.636108 -1.342933
v 0.013807 0.593210 -1.117676
v 0.034687 0.593210 -1.117285
v 0.010100 0.610433 -0.919378
v 0.030980 0.612512 -0.918987
v 0.009589 0.613219 -0.892027
v 0.030468 0.615106 -0.891636
v 0.006265 0.613069 -0.714242
v 0.027145 0.613153 -0.713852
v 0.004731 0.605922 -0.632189
v 0.025610 0.605922 -0.631798
v 0.002430 0.605922 -0.509107
v 0.023310 0.605922 -0.508717
v -0.000766 0.602250 -0.338161
v 0.020114 0.601686 -0.337771
v -0.034193 0.570064 -2.093004
v -0.047485 0.709147 -0.329647
v -0.047310 0.603505 -0.339032
v -0.041666 0.523685 -1.693291
v -0.043968 0.579489 -1.570210
v -0.046396 0.668764 -1.440291
v 0.006089 0.706271 -0.704859
v 0.004555 0.707124 -0.622804
v 0.009413 0.703696 -0.882642
v -0.036619 0.698165 -0.910864
v -0.037130 0.703483 -0.883513
v 0.009925 0.698165 -0.909994
v 0.013632 0.698165 -1.108291
v -0.032912 0.698165 -1.109161
v -0.031634 0.703227 -1.177539
v -0.028693 0.705989 -1.334809
v 0.017850 0.704121 -1.333940
v 0.019640 0.697585 -1.429669
v -0.026903 0.697585 -1.430540
v -0.026744 0.669790 -1.439081
v 0.052899 0.570064 -2.091375
v 0.019763 0.672217 -1.436218
v 0.040626 0.673307 -1.434934
v 0.045426 0.523685 -1.691664
v 0.043125 0.579489 -1.568583
v -0.048187 0.627112 -1.344561
v -0.051127 0.592386 -1.187291
v -0.052405 0.593210 -1.118913
v -0.056112 0.603843 -0.920616
v -0.056623 0.607235 -0.893264
v -0.059947 0.612800 -0.715481
v -0.061481 0.605922 -0.633426
v -0.063782 0.605922 -0.510345
v 0.002253 0.707124 -0.499723
v -0.044289 0.707124 -0.500593
v -0.000942 0.706622 -0.328777
v 0.014910 0.703379 -1.176670
v -0.031458 0.592053 -1.186924
v -0.028517 0.629144 -1.344194
v -0.032736 0.593210 -1.118545
v -0.036444 0.605801 -0.920247
v -0.036955 0.609013 -0.892896
v -0.040279 0.612880 -0.715113
v -0.041813 0.605922 -0.633058
v -0.044114 0.605922 -0.509978
v -0.040454 0.707389 -0.705728
v -0.041988 0.707124 -0.623675
vt 0.586256 1.000000
vt 0.625000 1.000000
vt 0.625000 1.000000
vt 0.586256 1.000000
vt 0.586256 1.000000
vt 0.625000 1.000000
vt 0.517637 0.750000
vt 0.375000 0.750000
vt 0.375000 0.750000
vt 0.517637 0.750000
vt 0.586256 0.750000
vt 0.625000 0.750000
vt 0.625000 1.000000
vt 0.586256 1.000000
vt 0.375000 0.750000
vt 0.517637 0.750000
vt 0.625000 1.000000
vt 0.586256 1.000000
vt 0.625000 1.000000
vt 0.586256 1.000000
vt 0.625000 1.000000
vt 0.586256 1.000000
vt 0.625000 1.000000
vt 0.586256 1.000000
vt 0.625000 1.000000
vt 0.586256 1.000000
vt 0.625000 1.000000
vt 0.586256 1.000000
vt 0.625000 1.000000
vt 0.586256 1.000000
vt 0.625000 1.000000
vt 0.586256 1.000000
vt 0.625000 1.000000
vt 0.586256 1.000000
vt 0.533749 1.000000
vt 0.548920 1.000000
vt 0.571945 1.000000
vt 0.549583 1.000000
vt 0.506880 1.000000
vt 0.451029 1.000000
vt 0.375000 1.000000
vt 0.517637 1.000000
vt 0.427650 1.000000
vt 0.375000 1.000000
vt 0.625000 1.000000
vt 0.625000 1.000000
vt 0.445395 1.000000
vt 0.554246 1.000000
vt 0.625000 1.000000
vt 0.375000 1.000000
vt 0.586256 1.000000
vt 0.586256 1.000000
vt 0.625000 1.000000
vt 0.625000 1.000000
vt 0.586255 1.000000
vt 0.625000 1.000000
vt 0.517637 0.750000
vt 0.517637 0.750000
vt 0.375000 0.750000
vt 0.375000 0.750000
vt 0.586256 0.750000
vt 0.625000 0.750000
vt 0.586256 1.000000
vt 0.625000 1.000000
vt 0.517637 0.750000
vt 0.375000 0.750000
vt 0.586256 1.000000
vt 0.625000 1.000000
vt 0.586256 1.000000
vt 0.625000 1.000000
vt 0.586256 1.000000
vt 0.625000 1.000000
vt 0.586256 1.000000
vt 0.625000 1.000000
vt 0.586256 1.000000
vt 0.625000 1.000000
vt 0.586256 1.000000
vt 0.625000 1.000000
vt 0.586256 1.000000
vt 0.625000 1.000000
vt 0.586256 1.000000
vt 0.625000 1.000000
vt 0.586256 1.000000
vt 0.625000 1.000000
vt 0.533749 1.000000
vt 0.549583 1.000000
vt 0.571945 1.000000
vt 0.548920 1.000000
vt 0.506880 1.000000
vt 0.517637 1.000000
vt 0.375000 1.000000
vt 0.451029 1.000000
vt 0.375000 1.000000
vt 0.427650 1.000000
vt 0.625000 1.000000
vt 0.445395 1.000000
vt 0.375000 1.000000
vt 0.625000 1.000000
vt 0.554246 1.000000
vt 0.625000 1.000000
vt 0.625000 1.000000
vt 0.625000 1.000000
vt 0.625000 1.000000
vt 0.375000 1.000000
vt 0.375000 1.000000
vt 0.375000 1.000000
vt 0.375000 1.000000
vt 0.375000 1.000000
vt 0.375000 1.000000
vt 0.375000 1.000000
vt 0.375000 1.000000
vt 0.625000 1.000000
vt 0.625000 1.000000
vt 0.375000 1.000000
vt 0.375000 1.000000
vt 0.375000 1.000000
vt 0.375000 1.000000
vt 0.375000 1.000000
vt 0.375000 1.000000
vt 0.625000 1.000000
vt 0.625000 1.000000
vt 0.625000 0.750000
vt 0.625000 0.750000
vt 0.625000 0.750000
vt 0.625000 0.750000
vt 0.375000 1.000000
vt 0.375000 1.000000
vt 0.625000 1.000000
vt 0.375000 1.000000
vt 0.375000 1.000000
vt 0.375000 0.750000
vt 0.375000 0.750000
vt 0.625000 1.000000
vt 0.586256 0.750000
vt 0.586256 0.750000
vt 0.375000 1.000000
vt 0.375000 1.000000
vt 0.509978 1.000000
vt 0.509978 1.000000
vt 0.375000 0.750000
vt 0.625000 1.000000
vt 0.375000 1.000000
vt 0.375000 1.000000
vt 0.625000 0.750000
vt 0.625000 1.000000
vt 0.375000 1.000000
vt 0.375000 1.000000
vt 0.375000 1.000000
vt 0.375000 1.000000
vt 0.625000 0.750000
vt 0.625000 0.750000
vt 0.586256 0.750000
vt 0.375000 1.000000
vt 0.375000 1.000000
vt 0.375000 1.000000
vt 0.375000 1.000000
vt 0.375000 1.000000
vt 0.375000 1.000000
vt 0.375000 1.000000
vt 0.375000 1.000000
vt 0.375000 1.000000
vt 0.375000 1.000000
vt 0.517637 1.000000
vt 0.375000 1.000000
vt 0.586256 1.000000
vt 0.517637 0.750000
vt 0.517637 1.000000
vt 0.517637 1.000000
vt 0.517637 1.000000
vt 0.517637 1.000000
vt 0.517637 1.000000
vt 0.517637 1.000000
vt 0.517637 1.000000
vt 0.517637 1.000000
vt 0.517637 1.000000
vt 0.517637 1.000000
vt 0.517637 1.000000
vt 0.517637 1.000000
vt 0.517637 1.000000
vt 0.517638 1.000000
vt 0.517638 1.000000
vt 0.517638 1.000000
vt 0.517638 1.000000
vt 0.517637 1.000000
vt 0.517637 1.000000
vt 0.586256 0.750000
vt 0.586256 1.000000
vt 0.517637 1.000000
vt 0.517637 1.000000
vt 0.517637 1.000000
vt 0.517637 1.000000
vt 0.586256 1.000000
vt 0.586256 1.000000
vt 0.586256 1.000000
vt 0.586256 1.000000
vt 0.586256 1.000000
vt 0.586256 1.000000
vt 0.586256 1.000000
vt 0.586256 1.000000
vt 0.586256 1.000000
vt 0.586256 1.000000
vt 0.586256 1.000000
vt 0.586256 1.000000
vt 0.586256 1.000000
vt 0.517637 1.000000
vt 0.586256 0.750000
vt 0.517637 1.000000
vt 0.517637 1.000000
vt 0.517637 1.000000
vt 0.517637 1.000000
vt 0.517637 1.000000
vt 0.517637 1.000000
vt 0.517637 1.000000
vt 0.517637 1.000000
vt 0.517637 1.000000
vt 0.517637 1.000000
vt 0.517638 1.000000
vt 0.517638 1.000000
vt 0.586256 1.000000
vt 0.586256 1.000000
vt 0.586256 1.000000
vt 0.586256 1.000000
vt 0.517637 1.000000
vt 0.517637 1.000000
vt 0.517637 1.000000
vt 0.517637 1.000000
vt 0.517637 1.000000
vt 0.517637 1.000000
vt 0.517638 1.000000
vt 0.517638 1.000000
vt 0.586256 1.000000
vt 0.586256 1.000000
vn 0.9998 -0.0000 0.0187
vn -0.9998 -0.0000 -0.0187
vn -0.0000 1.0000 0.0000
vn 0.0000 -1.0000 -0.0000
vn 0.0109 -0.8119 -0.5837
vn -0.0136 -0.6877 0.7258
vn 0.0106 0.8249 -0.5652
vn 0.0147 -0.6156 -0.7879
vn -0.0187 -0.0204 0.9996
vn 0.0117 0.7809 -0.6246
vn 0.0171 -0.4061 -0.9137
vn -0.0107 -0.8207 0.5713
vn -0.0112 0.8012 0.5983
vn 0.0141 -0.6585 -0.7524
vn -0.0002 -0.9999 0.0133
vn 0.0122 -0.7593 -0.6507
vn 0.0005 0.9996 -0.0278
vn 0.0187 0.0000 -0.9998
vn -0.0187 -0.0061 0.9998
vn 0.0136 -0.6866 -0.7269
vn 0.0127 0.7338 -0.6793
vn -0.0132 -0.7071 0.7070
vn 0.0187 0.0204 -0.9996
vn 0.0016 0.9965 -0.0830
vn -0.0170 -0.4138 0.9102
vn 0.0107 0.8207 -0.5713
vn -0.0009 -0.9987 0.0501
vn -0.0019 0.9950 0.0995
vn 0.0112 -0.8012 -0.5983
vn 0.0000 0.0000 1.0000
vn -0.0466 0.9623 0.2680
vn 0.0090 0.9995 -0.0308
vn -0.0478 0.9946 -0.0925
vn -0.0922 0.9908 -0.0992
vn -0.0472 0.9989 0.0050
vn -0.0036 0.9962 0.0872
vn 0.0131 0.9996 0.0234
vn 0.0222 0.0883 -0.9958
vn -0.0111 -0.9999 0.0129
vn -0.0123 -0.9998 0.0132
vn -0.0100 -0.9999 0.0126
vn -0.0013 -0.9819 0.1893
vn 0.0030 -0.9973 -0.0733
vn -0.0180 -0.9996 -0.0206
vn -0.0212 -0.9978 0.0634
vn -0.0303 -0.3019 0.9529
vn -0.0868 0.9229 0.3751
vn -0.0274 -0.9995 0.0144
vn -0.0270 -0.9996 -0.0068
vn -0.0327 -0.2387 0.9705
vn -0.0184 -0.9998 -0.0022
vn 0.0030 -0.9971 -0.0765
vn -0.0015 -0.9798 0.1998
vn 0.0223 0.0898 -0.9957
vn -0.0462 0.9741 0.2215
vn 0.0087 0.9999 -0.0143
vn -0.0485 0.9971 -0.0593
vn -0.0916 0.9884 -0.1210
vn -0.0467 0.9985 -0.0274
vn -0.0036 0.9965 0.0839
vn 0.0133 0.9998 0.0128
vn -0.0119 -0.9999 -0.0063
vn -0.0059 -1.0000 -0.0032
vn -0.0101 -0.9997 0.0234
vn -0.0217 -0.9956 0.0911
vn -0.0869 0.9152 0.3935
usemtl None.002
s 1
f 1/1/1 2/2/1 3/3/1 4/4/1
f 5/5/1 6/6/1 2/2/1 1/1/1
f 7/7/1 8/8/1 9/9/1 10/10/1
f 11/11/1 12/12/1 6/6/1 5/5/1
f 4/4/1 3/3/1 13/13/1 14/14/1
f 10/10/1 9/9/1 15/15/1 16/16/1
f 14/14/1 13/13/1 17/17/1 18/18/1
f 18/18/1 17/17/1 19/19/1 20/20/1
f 20/20/1 19/19/1 21/21/1 22/22/1
f 22/22/1 21/21/1 23/23/1 24/24/1
f 24/24/1 23/23/1 25/25/1 26/26/1
f 26/26/1 25/25/1 27/27/1 28/28/1
f 28/28/1 27/27/1 29/29/1 30/30/1
f 30/30/1 29/29/1 31/31/1 32/32/1
f 32/32/1 31/31/1 33/33/1 34/34/1
f 35/35/1 36/36/1 37/37/1 38/38/1
f 39/39/1 40/40/1 41/41/1 42/42/1
f 40/40/1 43/43/1 44/44/1 41/41/1
f 37/37/1 36/36/1 45/45/1 46/46/1
f 47/47/1 48/48/1 49/49/1 50/50/1
f 43/43/1 47/47/1 50/50/1 44/44/1
f 48/48/1 37/37/1 46/46/1 49/49/1
f 51/51/2 52/52/2 53/53/2 54/54/2
f 55/55/2 51/51/2 54/54/2 56/56/2
f 57/57/2 58/58/2 59/59/2 60/60/2
f 61/61/2 55/55/2 56/56/2 62/62/2
f 52/52/2 63/63/2 64/64/2 53/53/2
f 58/58/2 65/65/2 66/66/2 59/59/2
f 63/63/2 67/67/2 68/68/2 64/64/2
f 67/67/2 69/69/2 70/70/2 68/68/2
f 69/69/2 71/71/2 72/72/2 70/70/2
f 71/71/2 73/73/2 74/74/2 72/72/2
f 73/73/2 75/75/2 76/76/2 74/74/2
f 75/75/2 77/77/2 78/78/2 76/76/2
f 77/77/2 79/79/2 80/80/2 78/78/2
f 79/79/2 81/81/2 82/82/2 80/80/2
f 81/81/2 83/83/2 84/84/2 82/82/2
f 85/85/2 86/86/2 87/87/2 88/88/2
f 89/89/2 90/90/2 91/91/2 92/92/2
f 92/92/2 91/91/2 93/93/2 94/94/2
f 87/87/2 95/95/2 84/84/2 88/88/2
f 96/96/2 97/97/2 98/98/2 99/99/2
f 94/94/2 93/93/2 97/97/2 96/96/2
f 99/99/2 98/98/2 95/95/2 87/87/2
f 100/100/3 56/56/3 54/54/3 101/101/3
f 102/102/3 78/78/3 80/80/3 103/103/3
f 104/104/4 105/105/4 106/106/4 107/107/4
f 44/44/5 93/93/5 91/91/5 41/41/5
f 108/108/6 109/109/6 110/110/6 111/111/6
f 112/112/3 70/70/3 72/72/3 113/113/3
f 45/45/7 84/84/7 95/95/7 46/46/7
f 114/114/4 115/115/4 109/109/4 108/108/4
f 116/116/8 117/117/8 118/118/8 119/119/8
f 49/49/9 98/98/9 97/97/9 50/50/9
f 101/101/3 54/54/3 53/53/3 120/120/3
f 103/103/3 80/80/3 82/82/3 121/121/3
f 122/122/10 123/123/10 124/124/10 125/125/10
f 126/126/11 127/127/11 105/105/11 104/104/11
f 50/50/12 97/97/12 93/93/12 44/44/12
f 113/113/3 72/72/3 74/74/3 128/128/3
f 46/46/13 95/95/13 98/98/13 49/49/13
f 129/129/14 130/130/14 115/115/14 114/114/14
f 41/41/15 91/91/15 117/117/15 116/116/15
f 131/131/16 59/59/16 66/66/16 132/132/16
f 120/120/3 53/53/3 64/64/3 133/133/3
f 121/121/17 82/82/17 84/84/17 45/45/17
f 134/134/18 135/135/18 123/123/18 122/122/18
f 136/136/4 137/137/4 127/127/4 126/126/4
f 138/138/19 139/139/19 94/94/19 43/43/19
f 140/140/20 60/60/20 59/59/20 131/131/20
f 128/128/3 74/74/3 76/76/3 141/141/3
f 142/142/4 143/143/4 130/130/4 129/129/4
f 125/125/21 124/124/21 62/62/21 144/144/21
f 133/133/3 64/64/3 68/68/3 145/145/3
f 146/146/22 147/147/22 137/137/22 136/136/22
f 47/47/23 96/96/23 99/99/23 48/48/23
f 141/141/24 76/76/24 78/78/24 102/102/24
f 107/107/25 106/106/25 143/143/25 142/142/25
f 43/43/26 94/94/26 96/96/26 47/47/26
f 111/111/27 110/110/27 60/60/27 140/140/27
f 145/145/28 68/68/28 70/70/28 112/112/28
f 48/48/29 99/99/29 87/87/29 37/37/29
f 144/144/3 62/62/3 56/56/3 100/100/3
f 119/119/4 118/118/4 147/147/4 146/146/4
f 148/148/30 108/108/30 111/111/30 149/149/30
f 150/150/30 122/122/30 125/125/30 151/151/30
f 9/9/30 131/131/30 132/132/30 15/15/30
f 152/152/30 134/134/30 122/122/30 150/150/30
f 8/8/30 140/140/30 131/131/30 9/9/30
f 151/151/30 125/125/30 144/144/30 12/12/30
f 149/149/30 111/111/30 140/140/30 8/8/30
f 12/12/30 144/144/30 100/100/30 6/6/30
f 6/6/30 100/100/30 101/101/30 2/2/30
f 153/153/30 114/114/30 108/108/30 148/148/30
f 2/2/30 101/101/30 120/120/30 3/3/30
f 154/154/30 129/129/30 114/114/30 153/153/30
f 3/3/30 120/120/30 133/133/30 13/13/30
f 155/155/30 142/142/30 129/129/30 154/154/30
f 13/13/30 133/133/30 145/145/30 17/17/30
f 156/156/30 107/107/30 142/142/30 155/155/30
f 17/17/30 145/145/30 112/112/30 19/19/30
f 157/157/30 104/104/30 107/107/30 156/156/30
f 19/19/30 112/112/30 113/113/30 21/21/30
f 158/158/30 126/126/30 104/104/30 157/157/30
f 21/21/30 113/113/30 128/128/30 23/23/30
f 159/159/30 136/136/30 126/126/30 158/158/30
f 23/23/30 128/128/30 141/141/30 25/25/30
f 160/160/30 146/146/30 136/136/30 159/159/30
f 25/25/30 141/141/30 102/102/30 27/27/30
f 161/161/30 119/119/30 146/146/30 160/160/30
f 27/27/30 102/102/30 103/103/30 29/29/30
f 162/162/30 116/116/30 119/119/30 161/161/30
f 29/29/30 103/103/30 121/121/30 31/31/30
f 163/163/30 42/42/30 41/41/30 164/164/30
f 164/164/30 41/41/30 116/116/30 162/162/30
f 31/31/30 121/121/30 45/45/30 33/33/30
f 33/33/30 45/45/30 165/165/30 34/34/30
f 16/16/30 166/166/30 134/134/30 152/152/30
f 37/37/19 87/87/19 86/86/19 38/38/19
f 166/166/18 65/65/18 135/135/18 134/134/18
f 88/88/2 84/84/2 83/83/2 85/85/2
f 89/89/2 139/139/2 86/86/2 85/85/2
f 167/167/2 90/90/2 83/83/2 81/81/2
f 168/168/31 169/169/31 170/170/31 171/171/31
f 169/169/32 172/172/32 173/173/32 170/170/32
f 172/172/33 174/174/33 175/175/33 173/173/33
f 174/174/34 176/176/34 177/177/34 175/175/34
f 176/176/35 178/178/35 179/179/35 177/177/35
f 178/178/36 180/180/36 181/181/36 179/179/36
f 180/180/3 182/182/3 183/183/3 181/181/3
f 182/182/37 184/184/37 185/185/37 183/183/37
f 124/124/2 123/123/2 135/135/2 186/186/2
f 187/187/38 188/188/38 167/167/38 81/81/38
f 57/57/2 189/189/2 55/55/2 61/61/2
f 62/62/2 124/124/2 186/186/2 61/61/2
f 189/189/2 190/190/2 51/51/2 55/55/2
f 190/190/2 191/191/2 52/52/2 51/51/2
f 36/36/1 35/35/1 165/165/1 45/45/1
f 39/39/1 35/35/1 38/38/1 138/138/1
f 185/185/1 32/32/1 34/34/1 163/163/1
f 192/192/39 26/26/39 28/28/40 193/193/40
f 194/194/41 24/24/41 26/26/39 192/192/39
f 195/195/42 196/196/42 73/73/42 71/71/42
f 197/197/4 198/198/4 20/20/4 22/22/4
f 199/199/43 69/69/43 67/67/43 200/200/43
f 200/200/44 67/67/44 63/63/44 201/201/44
f 202/202/45 203/203/45 4/4/45 14/14/45
f 204/204/46 52/52/46 191/191/46 205/205/46
f 151/151/1 206/206/1 152/152/1 150/150/1
f 207/207/47 168/168/47 171/171/47 208/208/47
f 7/7/1 11/11/1 5/5/1 209/209/1
f 12/12/1 11/11/1 206/206/1 151/151/1
f 209/209/1 5/5/1 1/1/1 210/210/1
f 210/210/1 1/1/1 4/4/1 208/208/1
f 148/148/1 210/210/1 208/208/1 153/153/1
f 149/149/1 209/209/1 210/210/1 148/148/1
f 8/8/1 7/7/1 209/209/1 149/149/1
f 153/153/1 208/208/1 171/171/1 154/154/1
f 154/154/1 171/171/1 170/170/1 155/155/1
f 155/155/1 170/170/1 173/173/1 156/156/1
f 156/156/1 173/173/1 175/175/1 157/157/1
f 157/157/1 175/175/1 177/177/1 158/158/1
f 158/158/1 177/177/1 179/179/1 159/159/1
f 159/159/1 179/179/1 181/181/1 160/160/1
f 160/160/1 181/181/1 183/183/1 161/161/1
f 161/161/1 183/183/1 185/185/1 162/162/1
f 162/162/1 185/185/1 163/163/1 164/164/1
f 40/40/1 39/39/1 138/138/1 43/43/1
f 109/109/2 115/115/2 191/191/2 190/190/2
f 110/110/2 109/109/2 190/190/2 189/189/2
f 60/60/2 110/110/2 189/189/2 57/57/2
f 115/115/2 130/130/2 211/211/2 191/191/2
f 130/130/2 143/143/2 212/212/2 211/211/2
f 143/143/2 106/106/2 213/213/2 212/212/2
f 106/106/2 105/105/2 214/214/2 213/213/2
f 105/105/2 127/127/2 215/215/2 214/214/2
f 127/127/2 137/137/2 216/216/2 215/215/2
f 137/137/2 147/147/2 217/217/2 216/216/2
f 147/147/2 118/118/2 218/218/2 217/217/2
f 118/118/2 117/117/2 167/167/2 218/218/2
f 117/117/2 91/91/2 90/90/2 167/167/2
f 92/92/2 94/94/2 139/139/2 89/89/2
f 132/132/18 66/66/18 65/65/18 166/166/18
f 15/15/30 132/132/30 166/166/30 16/16/30
f 34/34/30 165/165/30 42/42/30 163/163/30
f 38/38/19 86/86/19 139/139/19 138/138/19
f 85/85/2 83/83/2 90/90/2 89/89/2
f 186/186/2 135/135/2 65/65/2 58/58/2
f 61/61/2 186/186/2 58/58/2 57/57/2
f 35/35/1 39/39/1 42/42/1 165/165/1
f 206/206/1 10/10/1 16/16/1 152/152/1
f 11/11/1 7/7/1 10/10/1 206/206/1
f 193/193/4 28/28/4 30/30/4 219/219/4
f 187/187/48 81/81/48 79/79/48 220/220/48
f 32/32/49 221/221/49 219/219/49 30/30/49
f 4/4/50 203/203/50 207/207/50 208/208/50
f 18/18/51 222/222/51 202/202/51 14/14/51
f 20/20/52 198/198/52 222/222/52 18/18/52
f 22/22/53 24/24/53 194/194/53 197/197/53
f 32/32/54 185/185/54 184/184/54 221/221/54
f 198/198/1 172/172/1 169/169/1 222/222/1
f 211/211/55 212/212/55 223/223/55 224/224/55
f 212/212/56 213/213/56 225/225/56 223/223/56
f 213/213/57 214/214/57 226/226/57 225/225/57
f 214/214/58 215/215/58 227/227/58 226/226/58
f 215/215/59 216/216/59 228/228/59 227/227/59
f 216/216/60 217/217/60 229/229/60 228/228/60
f 217/217/3 218/218/3 230/230/3 229/229/3
f 218/218/61 167/167/61 188/188/61 230/230/61
f 75/75/62 231/231/62 232/232/63 77/77/63
f 73/73/64 196/196/64 231/231/64 75/75/64
f 71/71/4 69/69/4 199/199/4 195/195/4
f 63/63/65 52/52/65 204/204/65 201/201/65
f 191/191/66 211/211/66 224/224/66 205/205/66
f 77/77/63 232/232/63 220/220/4 79/79/4
f 197/197/1 174/174/1 172/172/1 198/198/1
f 194/194/1 176/176/1 174/174/1 197/197/1
f 192/192/1 178/178/1 176/176/1 194/194/1
f 193/193/1 180/180/1 178/178/1 192/192/1
f 219/219/1 182/182/1 180/180/1 193/193/1
f 221/221/1 184/184/1 182/182/1 219/219/1
f 222/222/1 169/169/1 168/168/1 202/202/1
f 207/207/1 203/203/1 202/202/1 168/168/1
f 201/201/2 204/204/2 205/205/2 224/224/2
f 223/223/2 200/200/2 201/201/2 224/224/2
f 225/225/2 199/199/2 200/200/2 223/223/2
f 225/225/2 226/226/2 195/195/2 199/199/2
f 227/227/2 196/196/2 195/195/2 226/226/2
f 227/227/2 228/228/2 231/231/2 196/196/2
f 228/228/2 229/229/2 232/232/2 231/231/2
f 229/229/2 230/230/2 220/220/2 232/232/2
f 188/188/2 187/187/2 220/220/2 230/230/2
